{
    "asset" : {
        "generator" : "Khronos glTF Blender I/O v1.7.33",
        "version" : "2.0"
    },
    "scene" : 0,
    "scenes" : [
        {
            "name" : "Scene",
            "nodes" : [
                0,
                1,
                2,
                3,
                4,
                5,
                6
            ]
        }
    ],
    "nodes" : [
        {
            "mesh" : 0,
            "name" : "Cylinder",
            "translation" : [
                0,
                2.4256513118743896,
                0
            ]
        },
        {
            "mesh" : 1,
            "name" : "Cylinder.001",
            "translation" : [
                0,
                2.4256513118743896,
                -14.080340385437012
            ]
        },
        {
            "mesh" : 2,
            "name" : "Cylinder.002",
            "translation" : [
                18.383331298828125,
                1.4331879615783691,
                -14.080340385437012
            ]
        },
        {
            "mesh" : 3,
            "name" : "Cylinder.003",
            "translation" : [
                18.383331298828125,
                1.4331879615783691,
                9.424080848693848
            ]
        },
        {
            "mesh" : 4,
            "name" : "Cylinder.004",
            "translation" : [
                5.073362350463867,
                1.4331879615783691,
                9.424080848693848
            ]
        },
        {
            "mesh" : 5,
            "name" : "Cylinder.005",
            "translation" : [
                -15.231178283691406,
                2.614560127258301,
                9.424080848693848
            ]
        },
        {
            "mesh" : 6,
            "name" : "Cylinder.006",
            "translation" : [
                -15.231178283691406,
                2.614560127258301,
                -14.392935752868652
            ]
        }
    ],
    "meshes" : [
        {
            "name" : "Cylinder",
            "primitives" : [
                {
                    "attributes" : {
                        "POSITION" : 0,
                        "NORMAL" : 1,
                        "TEXCOORD_0" : 2
                    },
                    "indices" : 3
                }
            ]
        },
        {
            "name" : "Cylinder.001",
            "primitives" : [
                {
                    "attributes" : {
                        "POSITION" : 4,
                        "NORMAL" : 5,
                        "TEXCOORD_0" : 6
                    },
                    "indices" : 3
                }
            ]
        },
        {
            "name" : "Cylinder.002",
            "primitives" : [
                {
                    "attributes" : {
                        "POSITION" : 7,
                        "NORMAL" : 8,
                        "TEXCOORD_0" : 9
                    },
                    "indices" : 3
                }
            ]
        },
        {
            "name" : "Cylinder.003",
            "primitives" : [
                {
                    "attributes" : {
                        "POSITION" : 10,
                        "NORMAL" : 11,
                        "TEXCOORD_0" : 12
                    },
                    "indices" : 3
                }
            ]
        },
        {
            "name" : "Cylinder.004",
            "primitives" : [
                {
                    "attributes" : {
                        "POSITION" : 13,
                        "NORMAL" : 14,
                        "TEXCOORD_0" : 15
                    },
                    "indices" : 3
                }
            ]
        },
        {
            "name" : "Cylinder.005",
            "primitives" : [
                {
                    "attributes" : {
                        "POSITION" : 16,
                        "NORMAL" : 17,
                        "TEXCOORD_0" : 18
                    },
                    "indices" : 3
                }
            ]
        },
        {
            "name" : "Cylinder.006",
            "primitives" : [
                {
                    "attributes" : {
                        "POSITION" : 19,
                        "NORMAL" : 20,
                        "TEXCOORD_0" : 21
                    },
                    "indices" : 3
                }
            ]
        }
    ],
    "accessors" : [
        {
            "bufferView" : 0,
            "componentType" : 5126,
            "count" : 192,
            "max" : [
                1,
                1,
                1
            ],
            "min" : [
                -1,
                -1,
                -1
            ],
            "type" : "VEC3"
        },
        {
            "bufferView" : 1,
            "componentType" : 5126,
            "count" : 192,
            "type" : "VEC3"
        },
        {
            "bufferView" : 2,
            "componentType" : 5126,
            "count" : 192,
            "type" : "VEC2"
        },
        {
            "bufferView" : 3,
            "componentType" : 5123,
            "count" : 372,
            "type" : "SCALAR"
        },
        {
            "bufferView" : 4,
            "componentType" : 5126,
            "count" : 192,
            "max" : [
                1,
                1,
                1
            ],
            "min" : [
                -1,
                -1,
                -1
            ],
            "type" : "VEC3"
        },
        {
            "bufferView" : 5,
            "componentType" : 5126,
            "count" : 192,
            "type" : "VEC3"
        },
        {
            "bufferView" : 6,
            "componentType" : 5126,
            "count" : 192,
            "type" : "VEC2"
        },
        {
            "bufferView" : 7,
            "componentType" : 5126,
            "count" : 192,
            "max" : [
                1,
                1,
                1
            ],
            "min" : [
                -1,
                -1,
                -1
            ],
            "type" : "VEC3"
        },
        {
            "bufferView" : 8,
            "componentType" : 5126,
            "count" : 192,
            "type" : "VEC3"
        },
        {
            "bufferView" : 9,
            "componentType" : 5126,
            "count" : 192,
            "type" : "VEC2"
        },
        {
            "bufferView" : 10,
            "componentType" : 5126,
            "count" : 192,
            "max" : [
                1,
                1,
                1
            ],
            "min" : [
                -1,
                -1,
                -1
            ],
            "type" : "VEC3"
        },
        {
            "bufferView" : 11,
            "componentType" : 5126,
            "count" : 192,
            "type" : "VEC3"
        },
        {
            "bufferView" : 12,
            "componentType" : 5126,
            "count" : 192,
            "type" : "VEC2"
        },
        {
            "bufferView" : 13,
            "componentType" : 5126,
            "count" : 192,
            "max" : [
                1,
                1,
                1
            ],
            "min" : [
                -1,
                -1,
                -1
            ],
            "type" : "VEC3"
        },
        {
            "bufferView" : 14,
            "componentType" : 5126,
            "count" : 192,
            "type" : "VEC3"
        },
        {
            "bufferView" : 15,
            "componentType" : 5126,
            "count" : 192,
            "type" : "VEC2"
        },
        {
            "bufferView" : 16,
            "componentType" : 5126,
            "count" : 192,
            "max" : [
                1,
                1,
                1
            ],
            "min" : [
                -1,
                -1,
                -1
            ],
            "type" : "VEC3"
        },
        {
            "bufferView" : 17,
            "componentType" : 5126,
            "count" : 192,
            "type" : "VEC3"
        },
        {
            "bufferView" : 18,
            "componentType" : 5126,
            "count" : 192,
            "type" : "VEC2"
        },
        {
            "bufferView" : 19,
            "componentType" : 5126,
            "count" : 192,
            "max" : [
                1,
                1,
                1
            ],
            "min" : [
                -1,
                -1,
                -1
            ],
            "type" : "VEC3"
        },
        {
            "bufferView" : 20,
            "componentType" : 5126,
            "count" : 192,
            "type" : "VEC3"
        },
        {
            "bufferView" : 21,
            "componentType" : 5126,
            "count" : 192,
            "type" : "VEC2"
        }
    ],
    "bufferViews" : [
        {
            "buffer" : 0,
            "byteLength" : 2304,
            "byteOffset" : 0
        },
        {
            "buffer" : 0,
            "byteLength" : 2304,
            "byteOffset" : 2304
        },
        {
            "buffer" : 0,
            "byteLength" : 1536,
            "byteOffset" : 4608
        },
        {
            "buffer" : 0,
            "byteLength" : 744,
            "byteOffset" : 6144
        },
        {
            "buffer" : 0,
            "byteLength" : 2304,
            "byteOffset" : 6888
        },
        {
            "buffer" : 0,
            "byteLength" : 2304,
            "byteOffset" : 9192
        },
        {
            "buffer" : 0,
            "byteLength" : 1536,
            "byteOffset" : 11496
        },
        {
            "buffer" : 0,
            "byteLength" : 2304,
            "byteOffset" : 13032
        },
        {
            "buffer" : 0,
            "byteLength" : 2304,
            "byteOffset" : 15336
        },
        {
            "buffer" : 0,
            "byteLength" : 1536,
            "byteOffset" : 17640
        },
        {
            "buffer" : 0,
            "byteLength" : 2304,
            "byteOffset" : 19176
        },
        {
            "buffer" : 0,
            "byteLength" : 2304,
            "byteOffset" : 21480
        },
        {
            "buffer" : 0,
            "byteLength" : 1536,
            "byteOffset" : 23784
        },
        {
            "buffer" : 0,
            "byteLength" : 2304,
            "byteOffset" : 25320
        },
        {
            "buffer" : 0,
            "byteLength" : 2304,
            "byteOffset" : 27624
        },
        {
            "buffer" : 0,
            "byteLength" : 1536,
            "byteOffset" : 29928
        },
        {
            "buffer" : 0,
            "byteLength" : 2304,
            "byteOffset" : 31464
        },
        {
            "buffer" : 0,
            "byteLength" : 2304,
            "byteOffset" : 33768
        },
        {
            "buffer" : 0,
            "byteLength" : 1536,
            "byteOffset" : 36072
        },
        {
            "buffer" : 0,
            "byteLength" : 2304,
            "byteOffset" : 37608
        },
        {
            "buffer" : 0,
            "byteLength" : 2304,
            "byteOffset" : 39912
        },
        {
            "buffer" : 0,
            "byteLength" : 1536,
            "byteOffset" : 42216
        }
    ],
    "buffers" : [
        {
            "byteLength" : 43752,
            "uri" : "scene.bin"
        }
    ]
}
