{
    "asset" : {
        "generator" : "Khronos glTF Blender I/O v1.7.33",
        "version" : "2.0"
    },
    "scene" : 0,
    "scenes" : [
        {
            "name" : "Scene",
            "nodes" : [
                0,
                1,
                2,
                3,
                4,
                5,
                6,
                7,
                8
            ]
        }
    ],
    "nodes" : [
        {
            "mesh" : 0,
            "name" : "Plane"
        },
        {
            "mesh" : 1,
            "name" : "Cube"
        },
        {
            "mesh" : 2,
            "name" : "Cylinder",
            "translation" : [
                0,
                2.4256513118743896,
                0
            ]
        },
        {
            "mesh" : 3,
            "name" : "Cylinder.001",
            "translation" : [
                0,
                2.4256513118743896,
                -14.080340385437012
            ]
        },
        {
            "mesh" : 4,
            "name" : "Cylinder.002",
            "translation" : [
                18.383331298828125,
                1.4331879615783691,
                -14.080340385437012
            ]
        },
        {
            "mesh" : 5,
            "name" : "Cylinder.003",
            "translation" : [
                18.383331298828125,
                1.4331879615783691,
                9.424080848693848
            ]
        },
        {
            "mesh" : 6,
            "name" : "Cylinder.004",
            "translation" : [
                5.073362350463867,
                1.4331879615783691,
                9.424080848693848
            ]
        },
        {
            "mesh" : 7,
            "name" : "Cylinder.005",
            "translation" : [
                -15.231178283691406,
                2.614560127258301,
                9.424080848693848
            ]
        },
        {
            "mesh" : 8,
            "name" : "Cylinder.006",
            "translation" : [
                -15.231178283691406,
                2.614560127258301,
                -14.392935752868652
            ]
        }
    ],
    "materials" : [
        {
            "doubleSided" : true,
            "name" : "Material.001",
            "pbrMetallicRoughness" : {
                "baseColorTexture" : {
                    "index" : 0
                },
                "metallicFactor" : 0,
                "roughnessFactor" : 0.5
            }
        },
        {
            "doubleSided" : true,
            "name" : "Material",
            "pbrMetallicRoughness" : {
                "baseColorFactor" : [
                    0.800000011920929,
                    0.800000011920929,
                    0.800000011920929,
                    1
                ],
                "metallicFactor" : 0,
                "roughnessFactor" : 0.4000000059604645
            }
        }
    ],
    "meshes" : [
        {
            "name" : "Plane",
            "primitives" : [
                {
                    "attributes" : {
                        "POSITION" : 0,
                        "NORMAL" : 1,
                        "TEXCOORD_0" : 2
                    },
                    "indices" : 3,
                    "material" : 0
                }
            ]
        },
        {
            "name" : "Cube",
            "primitives" : [
                {
                    "attributes" : {
                        "POSITION" : 4,
                        "NORMAL" : 5,
                        "TEXCOORD_0" : 6
                    },
                    "indices" : 7,
                    "material" : 1
                }
            ]
        },
        {
            "name" : "Cylinder",
            "primitives" : [
                {
                    "attributes" : {
                        "POSITION" : 8,
                        "NORMAL" : 9,
                        "TEXCOORD_0" : 10
                    },
                    "indices" : 11
                }
            ]
        },
        {
            "name" : "Cylinder.001",
            "primitives" : [
                {
                    "attributes" : {
                        "POSITION" : 12,
                        "NORMAL" : 13,
                        "TEXCOORD_0" : 14
                    },
                    "indices" : 11
                }
            ]
        },
        {
            "name" : "Cylinder.002",
            "primitives" : [
                {
                    "attributes" : {
                        "POSITION" : 15,
                        "NORMAL" : 16,
                        "TEXCOORD_0" : 17
                    },
                    "indices" : 11
                }
            ]
        },
        {
            "name" : "Cylinder.003",
            "primitives" : [
                {
                    "attributes" : {
                        "POSITION" : 18,
                        "NORMAL" : 19,
                        "TEXCOORD_0" : 20
                    },
                    "indices" : 11
                }
            ]
        },
        {
            "name" : "Cylinder.004",
            "primitives" : [
                {
                    "attributes" : {
                        "POSITION" : 21,
                        "NORMAL" : 22,
                        "TEXCOORD_0" : 23
                    },
                    "indices" : 11
                }
            ]
        },
        {
            "name" : "Cylinder.005",
            "primitives" : [
                {
                    "attributes" : {
                        "POSITION" : 24,
                        "NORMAL" : 25,
                        "TEXCOORD_0" : 26
                    },
                    "indices" : 11
                }
            ]
        },
        {
            "name" : "Cylinder.006",
            "primitives" : [
                {
                    "attributes" : {
                        "POSITION" : 27,
                        "NORMAL" : 28,
                        "TEXCOORD_0" : 29
                    },
                    "indices" : 11
                }
            ]
        }
    ],
    "textures" : [
        {
            "sampler" : 0,
            "source" : 0
        }
    ],
    "images" : [
        {
            "mimeType" : "image/png",
            "name" : "diffuse",
            "uri" : "diffuse.png"
        }
    ],
    "accessors" : [
        {
            "bufferView" : 0,
            "componentType" : 5126,
            "count" : 529,
            "max" : [
                25.065658569335938,
                2.759140729904175,
                25.54190444946289
            ],
            "min" : [
                -25.414392471313477,
                0.009261826984584332,
                -25.162227630615234
            ],
            "type" : "VEC3"
        },
        {
            "bufferView" : 1,
            "componentType" : 5126,
            "count" : 529,
            "type" : "VEC3"
        },
        {
            "bufferView" : 2,
            "componentType" : 5126,
            "count" : 529,
            "type" : "VEC2"
        },
        {
            "bufferView" : 3,
            "componentType" : 5123,
            "count" : 2904,
            "type" : "SCALAR"
        },
        {
            "bufferView" : 4,
            "componentType" : 5126,
            "count" : 24,
            "max" : [
                1,
                1,
                1
            ],
            "min" : [
                -1,
                -1,
                -1
            ],
            "type" : "VEC3"
        },
        {
            "bufferView" : 5,
            "componentType" : 5126,
            "count" : 24,
            "type" : "VEC3"
        },
        {
            "bufferView" : 6,
            "componentType" : 5126,
            "count" : 24,
            "type" : "VEC2"
        },
        {
            "bufferView" : 7,
            "componentType" : 5123,
            "count" : 36,
            "type" : "SCALAR"
        },
        {
            "bufferView" : 8,
            "componentType" : 5126,
            "count" : 192,
            "max" : [
                1,
                1,
                1
            ],
            "min" : [
                -1,
                -1,
                -1
            ],
            "type" : "VEC3"
        },
        {
            "bufferView" : 9,
            "componentType" : 5126,
            "count" : 192,
            "type" : "VEC3"
        },
        {
            "bufferView" : 10,
            "componentType" : 5126,
            "count" : 192,
            "type" : "VEC2"
        },
        {
            "bufferView" : 11,
            "componentType" : 5123,
            "count" : 372,
            "type" : "SCALAR"
        },
        {
            "bufferView" : 12,
            "componentType" : 5126,
            "count" : 192,
            "max" : [
                1,
                1,
                1
            ],
            "min" : [
                -1,
                -1,
                -1
            ],
            "type" : "VEC3"
        },
        {
            "bufferView" : 13,
            "componentType" : 5126,
            "count" : 192,
            "type" : "VEC3"
        },
        {
            "bufferView" : 14,
            "componentType" : 5126,
            "count" : 192,
            "type" : "VEC2"
        },
        {
            "bufferView" : 15,
            "componentType" : 5126,
            "count" : 192,
            "max" : [
                1,
                1,
                1
            ],
            "min" : [
                -1,
                -1,
                -1
            ],
            "type" : "VEC3"
        },
        {
            "bufferView" : 16,
            "componentType" : 5126,
            "count" : 192,
            "type" : "VEC3"
        },
        {
            "bufferView" : 17,
            "componentType" : 5126,
            "count" : 192,
            "type" : "VEC2"
        },
        {
            "bufferView" : 18,
            "componentType" : 5126,
            "count" : 192,
            "max" : [
                1,
                1,
                1
            ],
            "min" : [
                -1,
                -1,
                -1
            ],
            "type" : "VEC3"
        },
        {
            "bufferView" : 19,
            "componentType" : 5126,
            "count" : 192,
            "type" : "VEC3"
        },
        {
            "bufferView" : 20,
            "componentType" : 5126,
            "count" : 192,
            "type" : "VEC2"
        },
        {
            "bufferView" : 21,
            "componentType" : 5126,
            "count" : 192,
            "max" : [
                1,
                1,
                1
            ],
            "min" : [
                -1,
                -1,
                -1
            ],
            "type" : "VEC3"
        },
        {
            "bufferView" : 22,
            "componentType" : 5126,
            "count" : 192,
            "type" : "VEC3"
        },
        {
            "bufferView" : 23,
            "componentType" : 5126,
            "count" : 192,
            "type" : "VEC2"
        },
        {
            "bufferView" : 24,
            "componentType" : 5126,
            "count" : 192,
            "max" : [
                1,
                1,
                1
            ],
            "min" : [
                -1,
                -1,
                -1
            ],
            "type" : "VEC3"
        },
        {
            "bufferView" : 25,
            "componentType" : 5126,
            "count" : 192,
            "type" : "VEC3"
        },
        {
            "bufferView" : 26,
            "componentType" : 5126,
            "count" : 192,
            "type" : "VEC2"
        },
        {
            "bufferView" : 27,
            "componentType" : 5126,
            "count" : 192,
            "max" : [
                1,
                1,
                1
            ],
            "min" : [
                -1,
                -1,
                -1
            ],
            "type" : "VEC3"
        },
        {
            "bufferView" : 28,
            "componentType" : 5126,
            "count" : 192,
            "type" : "VEC3"
        },
        {
            "bufferView" : 29,
            "componentType" : 5126,
            "count" : 192,
            "type" : "VEC2"
        }
    ],
    "bufferViews" : [
        {
            "buffer" : 0,
            "byteLength" : 6348,
            "byteOffset" : 0
        },
        {
            "buffer" : 0,
            "byteLength" : 6348,
            "byteOffset" : 6348
        },
        {
            "buffer" : 0,
            "byteLength" : 4232,
            "byteOffset" : 12696
        },
        {
            "buffer" : 0,
            "byteLength" : 5808,
            "byteOffset" : 16928
        },
        {
            "buffer" : 0,
            "byteLength" : 288,
            "byteOffset" : 22736
        },
        {
            "buffer" : 0,
            "byteLength" : 288,
            "byteOffset" : 23024
        },
        {
            "buffer" : 0,
            "byteLength" : 192,
            "byteOffset" : 23312
        },
        {
            "buffer" : 0,
            "byteLength" : 72,
            "byteOffset" : 23504
        },
        {
            "buffer" : 0,
            "byteLength" : 2304,
            "byteOffset" : 23576
        },
        {
            "buffer" : 0,
            "byteLength" : 2304,
            "byteOffset" : 25880
        },
        {
            "buffer" : 0,
            "byteLength" : 1536,
            "byteOffset" : 28184
        },
        {
            "buffer" : 0,
            "byteLength" : 744,
            "byteOffset" : 29720
        },
        {
            "buffer" : 0,
            "byteLength" : 2304,
            "byteOffset" : 30464
        },
        {
            "buffer" : 0,
            "byteLength" : 2304,
            "byteOffset" : 32768
        },
        {
            "buffer" : 0,
            "byteLength" : 1536,
            "byteOffset" : 35072
        },
        {
            "buffer" : 0,
            "byteLength" : 2304,
            "byteOffset" : 36608
        },
        {
            "buffer" : 0,
            "byteLength" : 2304,
            "byteOffset" : 38912
        },
        {
            "buffer" : 0,
            "byteLength" : 1536,
            "byteOffset" : 41216
        },
        {
            "buffer" : 0,
            "byteLength" : 2304,
            "byteOffset" : 42752
        },
        {
            "buffer" : 0,
            "byteLength" : 2304,
            "byteOffset" : 45056
        },
        {
            "buffer" : 0,
            "byteLength" : 1536,
            "byteOffset" : 47360
        },
        {
            "buffer" : 0,
            "byteLength" : 2304,
            "byteOffset" : 48896
        },
        {
            "buffer" : 0,
            "byteLength" : 2304,
            "byteOffset" : 51200
        },
        {
            "buffer" : 0,
            "byteLength" : 1536,
            "byteOffset" : 53504
        },
        {
            "buffer" : 0,
            "byteLength" : 2304,
            "byteOffset" : 55040
        },
        {
            "buffer" : 0,
            "byteLength" : 2304,
            "byteOffset" : 57344
        },
        {
            "buffer" : 0,
            "byteLength" : 1536,
            "byteOffset" : 59648
        },
        {
            "buffer" : 0,
            "byteLength" : 2304,
            "byteOffset" : 61184
        },
        {
            "buffer" : 0,
            "byteLength" : 2304,
            "byteOffset" : 63488
        },
        {
            "buffer" : 0,
            "byteLength" : 1536,
            "byteOffset" : 65792
        }
    ],
    "samplers" : [
        {
            "magFilter" : 9729,
            "minFilter" : 9987
        }
    ],
    "buffers" : [
        {
            "byteLength" : 67328,
            "uri" : "scene.bin"
        }
    ]
}
